<svg width="83" height="83" viewBox="0 0 83 83" fill="none" xmlns="http://www.w3.org/2000/svg">
<path d="M33.3269 1.909C28.2603 3.37567 10.7936 10.309 9.59359 11.3757C9.46025 11.509 16.7936 11.3757 26.1269 10.9757C46.2603 10.1757 55.8603 11.909 63.0603 17.6423L68.1269 21.6423L67.1936 17.7757C63.7269 2.17567 51.8603 -3.291 33.3269 1.909Z" fill="#DA2339"/>
<path d="M71.1934 31.7757C71.3268 52.9757 70.2601 58.5757 64.3934 65.509L60.9268 69.509L64.7934 68.5757C74.3934 66.309 80.3934 60.709 81.8601 52.8424C83.0601 46.709 79.7268 31.6424 75.0601 20.8424L71.1934 12.0424V31.7757Z" fill="#0066FF"/>
<path d="M13.9934 15.6423C9.5934 16.8423 4.12674 21.3757 1.86007 25.7757C-1.73993 32.5757 -0.00659587 47.509 6.12674 61.7757C8.7934 68.1757 11.1934 73.2423 11.3267 73.109C11.4601 72.8423 11.0601 67.6423 10.3934 61.3757C8.26007 41.2423 11.5934 22.5757 18.2601 17.3757C21.1934 15.109 21.3267 14.709 19.1934 14.8423C17.7267 14.9757 15.4601 15.3757 13.9934 15.6423Z" fill="#0066FF"/>
<path d="M46.6602 17.1091C46.6602 17.7757 47.7268 19.3757 49.1935 20.5757C53.0602 24.0424 59.0602 38.4424 58.3935 42.7091C57.7268 47.2424 60.2602 46.7091 62.5268 41.9091C64.6602 36.9757 64.3935 34.4424 60.7935 29.5091C56.9268 24.4424 46.6602 15.2424 46.6602 17.1091Z" fill="#DA2339"/>
<path d="M25.8602 24.3091C19.7269 29.9091 13.8602 38.1757 19.4602 33.1091C24.2602 28.8424 39.7269 22.4424 42.9269 23.3757L45.9936 24.1757L42.7936 21.5091C37.8602 17.1091 32.7936 17.9091 25.8602 24.3091Z" fill="#0066FF"/>
<path d="M33.5936 31.5091C31.9936 32.5757 29.9936 34.8424 29.327 36.4424C28.2603 38.5757 28.6603 38.4424 31.0603 35.5091C33.1936 33.1091 35.5936 31.6424 37.9936 31.6424C40.527 31.6424 41.0603 31.3757 39.8603 30.5757C37.327 28.9757 37.0603 29.1091 33.5936 31.5091Z" fill="#DA2339"/>
<path d="M45.8598 32.4424C48.7932 34.8424 49.7265 36.8424 49.9932 41.1091C50.3932 47.2424 48.2598 50.0424 42.6598 51.1091C39.4598 51.6424 39.4598 51.6424 43.0598 51.9091C47.1932 52.0424 54.5265 45.6424 51.9932 44.0424C51.0598 43.5091 50.9265 41.6424 51.3265 39.6424C52.1265 36.8424 51.4598 35.3757 48.6598 32.7091C46.5265 30.8424 44.2598 29.3757 43.4598 29.3757C42.6598 29.3757 43.7265 30.7091 45.8598 32.4424Z" fill="#DA2339"/>
<path d="M20.1267 39.509C18.5267 41.509 17.3267 44.309 17.3267 45.7757C17.3267 50.9757 24.3933 59.509 32.9267 64.5757C33.86 64.9757 32.5267 62.4423 29.9933 58.8423C24.7933 50.8423 22.1267 43.7757 23.06 39.2423C23.7267 35.2423 23.46 35.2423 20.1267 39.509Z" fill="#DA2339"/>
<path d="M29.5935 43.5091C29.4602 46.0424 30.2602 48.4424 31.7268 49.6424C35.1935 52.7091 37.3268 53.6424 37.3268 52.3091C37.3268 51.6424 35.8602 50.4424 34.1268 49.6424C31.8602 48.5758 30.6602 46.8424 30.2602 43.7758L29.7268 39.3758L29.5935 43.5091Z" fill="#DA2339"/>
<path d="M57.9937 52.8423C50.127 58.1757 43.727 60.5757 39.0604 59.6423C35.8604 59.109 35.727 59.109 38.127 61.509C42.3937 65.509 46.927 65.909 51.8604 62.4423C55.5937 59.909 66.7937 47.909 65.1937 48.1757C64.9271 48.1757 61.7271 50.309 57.9937 52.8423Z" fill="#0066FF"/>
<path d="M13.7265 63.3757C14.1265 64.8424 14.9265 67.509 15.3265 69.3757C16.6598 74.1757 22.3932 79.7757 27.5932 81.509C35.0598 83.909 47.0598 81.909 60.7932 75.7757C67.7265 72.8424 73.1932 70.1757 73.0598 70.0424C72.7932 69.7757 69.0598 70.309 64.6598 70.9757C53.7265 72.8424 31.3265 71.509 24.6598 68.8424C21.7265 67.6424 17.9932 65.2424 16.1265 63.6424C13.1932 60.8424 13.0598 60.8424 13.7265 63.3757Z" fill="#DA2339"/>
</svg>
